<?xml version="1.0" encoding="utf-8" standalone="yes"?>
<!DOCTYPE svg PUBLIC "-//W3C//DTD SVG 1.1//EN" "http://www.w3.org/Graphics/SVG/1.1/DTD/svg11.dtd">
<svg xmlns:xlink="http://www.w3.org/1999/xlink" viewBox="0 0 188 188" class="barcode-canvas" version="1.1" style="shape-rendering:crispEdges;" xmlns="http://www.w3.org/2000/svg">
  <g text-rendering="geometricPrecision">
    <rect x="0" y="0" width="188" height="188" fill="#ffffff" />
    <rect x="7" y="7" width="49" height="7" fill="#000000" />
    <rect x="77" y="7" width="7" height="7" fill="#000000" />
    <rect x="105" y="7" width="7" height="7" fill="#000000" />
    <rect x="133" y="7" width="49" height="7" fill="#000000" />
    <rect x="7" y="14" width="7" height="7" fill="#000000" />
    <rect x="49" y="14" width="7" height="7" fill="#000000" />
    <rect x="70" y="14" width="7" height="7" fill="#000000" />
    <rect x="98" y="14" width="7" height="7" fill="#000000" />
    <rect x="119" y="14" width="7" height="7" fill="#000000" />
    <rect x="133" y="14" width="7" height="7" fill="#000000" />
    <rect x="175" y="14" width="7" height="7" fill="#000000" />
    <rect x="7" y="21" width="7" height="7" fill="#000000" />
    <rect x="21" y="21" width="21" height="7" fill="#000000" />
    <rect x="49" y="21" width="7" height="7" fill="#000000" />
    <rect x="63" y="21" width="7" height="7" fill="#000000" />
    <rect x="84" y="21" width="7" height="7" fill="#000000" />
    <rect x="112" y="21" width="14" height="7" fill="#000000" />
    <rect x="133" y="21" width="7" height="7" fill="#000000" />
    <rect x="147" y="21" width="21" height="7" fill="#000000" />
    <rect x="175" y="21" width="7" height="7" fill="#000000" />
    <rect x="7" y="28" width="7" height="7" fill="#000000" />
    <rect x="21" y="28" width="21" height="7" fill="#000000" />
    <rect x="49" y="28" width="7" height="7" fill="#000000" />
    <rect x="70" y="28" width="7" height="7" fill="#000000" />
    <rect x="98" y="28" width="7" height="7" fill="#000000" />
    <rect x="112" y="28" width="7" height="7" fill="#000000" />
    <rect x="133" y="28" width="7" height="7" fill="#000000" />
    <rect x="147" y="28" width="21" height="7" fill="#000000" />
    <rect x="175" y="28" width="7" height="7" fill="#000000" />
    <rect x="7" y="35" width="7" height="7" fill="#000000" />
    <rect x="21" y="35" width="21" height="7" fill="#000000" />
    <rect x="49" y="35" width="7" height="7" fill="#000000" />
    <rect x="70" y="35" width="7" height="7" fill="#000000" />
    <rect x="91" y="35" width="7" height="7" fill="#000000" />
    <rect x="105" y="35" width="7" height="7" fill="#000000" />
    <rect x="119" y="35" width="7" height="7" fill="#000000" />
    <rect x="133" y="35" width="7" height="7" fill="#000000" />
    <rect x="147" y="35" width="21" height="7" fill="#000000" />
    <rect x="175" y="35" width="7" height="7" fill="#000000" />
    <rect x="7" y="42" width="7" height="7" fill="#000000" />
    <rect x="49" y="42" width="7" height="7" fill="#000000" />
    <rect x="77" y="42" width="14" height="7" fill="#000000" />
    <rect x="98" y="42" width="7" height="7" fill="#000000" />
    <rect x="112" y="42" width="7" height="7" fill="#000000" />
    <rect x="133" y="42" width="7" height="7" fill="#000000" />
    <rect x="175" y="42" width="7" height="7" fill="#000000" />
    <rect x="7" y="49" width="49" height="7" fill="#000000" />
    <rect x="63" y="49" width="7" height="7" fill="#000000" />
    <rect x="77" y="49" width="7" height="7" fill="#000000" />
    <rect x="91" y="49" width="7" height="7" fill="#000000" />
    <rect x="105" y="49" width="7" height="7" fill="#000000" />
    <rect x="119" y="49" width="7" height="7" fill="#000000" />
    <rect x="133" y="49" width="49" height="7" fill="#000000" />
    <rect x="63" y="56" width="7" height="7" fill="#000000" />
    <rect x="84" y="56" width="7" height="7" fill="#000000" />
    <rect x="112" y="56" width="7" height="7" fill="#000000" />
    <rect x="7" y="63" width="21" height="7" fill="#000000" />
    <rect x="35" y="63" width="35" height="7" fill="#000000" />
    <rect x="91" y="63" width="7" height="7" fill="#000000" />
    <rect x="119" y="63" width="21" height="7" fill="#000000" />
    <rect x="161" y="63" width="7" height="7" fill="#000000" />
    <rect x="14" y="70" width="7" height="7" fill="#000000" />
    <rect x="35" y="70" width="7" height="7" fill="#000000" />
    <rect x="63" y="70" width="14" height="7" fill="#000000" />
    <rect x="84" y="70" width="7" height="7" fill="#000000" />
    <rect x="98" y="70" width="7" height="7" fill="#000000" />
    <rect x="112" y="70" width="7" height="7" fill="#000000" />
    <rect x="133" y="70" width="7" height="7" fill="#000000" />
    <rect x="147" y="70" width="14" height="7" fill="#000000" />
    <rect x="168" y="70" width="14" height="7" fill="#000000" />
    <rect x="21" y="77" width="7" height="7" fill="#000000" />
    <rect x="49" y="77" width="7" height="7" fill="#000000" />
    <rect x="77" y="77" width="7" height="7" fill="#000000" />
    <rect x="105" y="77" width="7" height="7" fill="#000000" />
    <rect x="119" y="77" width="14" height="7" fill="#000000" />
    <rect x="147" y="77" width="7" height="7" fill="#000000" />
    <rect x="161" y="77" width="14" height="7" fill="#000000" />
    <rect x="21" y="84" width="7" height="7" fill="#000000" />
    <rect x="35" y="84" width="14" height="7" fill="#000000" />
    <rect x="56" y="84" width="7" height="7" fill="#000000" />
    <rect x="70" y="84" width="28" height="7" fill="#000000" />
    <rect x="112" y="84" width="7" height="7" fill="#000000" />
    <rect x="126" y="84" width="7" height="7" fill="#000000" />
    <rect x="140" y="84" width="21" height="7" fill="#000000" />
    <rect x="168" y="84" width="7" height="7" fill="#000000" />
    <rect x="7" y="91" width="7" height="7" fill="#000000" />
    <rect x="28" y="91" width="7" height="7" fill="#000000" />
    <rect x="49" y="91" width="7" height="7" fill="#000000" />
    <rect x="63" y="91" width="7" height="7" fill="#000000" />
    <rect x="77" y="91" width="7" height="7" fill="#000000" />
    <rect x="105" y="91" width="7" height="7" fill="#000000" />
    <rect x="119" y="91" width="21" height="7" fill="#000000" />
    <rect x="147" y="91" width="35" height="7" fill="#000000" />
    <rect x="28" y="98" width="21" height="7" fill="#000000" />
    <rect x="56" y="98" width="14" height="7" fill="#000000" />
    <rect x="77" y="98" width="7" height="7" fill="#000000" />
    <rect x="91" y="98" width="7" height="7" fill="#000000" />
    <rect x="112" y="98" width="7" height="7" fill="#000000" />
    <rect x="126" y="98" width="7" height="7" fill="#000000" />
    <rect x="140" y="98" width="7" height="7" fill="#000000" />
    <rect x="7" y="105" width="7" height="7" fill="#000000" />
    <rect x="21" y="105" width="7" height="7" fill="#000000" />
    <rect x="42" y="105" width="21" height="7" fill="#000000" />
    <rect x="84" y="105" width="7" height="7" fill="#000000" />
    <rect x="119" y="105" width="7" height="7" fill="#000000" />
    <rect x="133" y="105" width="49" height="7" fill="#000000" />
    <rect x="14" y="112" width="7" height="7" fill="#000000" />
    <rect x="28" y="112" width="7" height="7" fill="#000000" />
    <rect x="70" y="112" width="7" height="7" fill="#000000" />
    <rect x="140" y="112" width="14" height="7" fill="#000000" />
    <rect x="161" y="112" width="14" height="7" fill="#000000" />
    <rect x="7" y="119" width="7" height="7" fill="#000000" />
    <rect x="21" y="119" width="21" height="7" fill="#000000" />
    <rect x="49" y="119" width="7" height="7" fill="#000000" />
    <rect x="77" y="119" width="7" height="7" fill="#000000" />
    <rect x="91" y="119" width="7" height="7" fill="#000000" />
    <rect x="105" y="119" width="49" height="7" fill="#000000" />
    <rect x="161" y="119" width="7" height="7" fill="#000000" />
    <rect x="175" y="119" width="7" height="7" fill="#000000" />
    <rect x="63" y="126" width="7" height="7" fill="#000000" />
    <rect x="98" y="126" width="7" height="7" fill="#000000" />
    <rect x="112" y="126" width="14" height="7" fill="#000000" />
    <rect x="147" y="126" width="14" height="7" fill="#000000" />
    <rect x="7" y="133" width="49" height="7" fill="#000000" />
    <rect x="63" y="133" width="7" height="7" fill="#000000" />
    <rect x="91" y="133" width="7" height="7" fill="#000000" />
    <rect x="105" y="133" width="7" height="7" fill="#000000" />
    <rect x="119" y="133" width="7" height="7" fill="#000000" />
    <rect x="133" y="133" width="7" height="7" fill="#000000" />
    <rect x="147" y="133" width="35" height="7" fill="#000000" />
    <rect x="7" y="140" width="7" height="7" fill="#000000" />
    <rect x="49" y="140" width="7" height="7" fill="#000000" />
    <rect x="63" y="140" width="35" height="7" fill="#000000" />
    <rect x="112" y="140" width="14" height="7" fill="#000000" />
    <rect x="147" y="140" width="14" height="7" fill="#000000" />
    <rect x="175" y="140" width="7" height="7" fill="#000000" />
    <rect x="7" y="147" width="7" height="7" fill="#000000" />
    <rect x="21" y="147" width="21" height="7" fill="#000000" />
    <rect x="49" y="147" width="7" height="7" fill="#000000" />
    <rect x="63" y="147" width="14" height="7" fill="#000000" />
    <rect x="91" y="147" width="14" height="7" fill="#000000" />
    <rect x="119" y="147" width="42" height="7" fill="#000000" />
    <rect x="168" y="147" width="14" height="7" fill="#000000" />
    <rect x="7" y="154" width="7" height="7" fill="#000000" />
    <rect x="21" y="154" width="21" height="7" fill="#000000" />
    <rect x="49" y="154" width="7" height="7" fill="#000000" />
    <rect x="70" y="154" width="14" height="7" fill="#000000" />
    <rect x="105" y="154" width="14" height="7" fill="#000000" />
    <rect x="140" y="154" width="7" height="7" fill="#000000" />
    <rect x="154" y="154" width="21" height="7" fill="#000000" />
    <rect x="7" y="161" width="7" height="7" fill="#000000" />
    <rect x="21" y="161" width="21" height="7" fill="#000000" />
    <rect x="49" y="161" width="7" height="7" fill="#000000" />
    <rect x="63" y="161" width="7" height="7" fill="#000000" />
    <rect x="98" y="161" width="14" height="7" fill="#000000" />
    <rect x="119" y="161" width="7" height="7" fill="#000000" />
    <rect x="140" y="161" width="28" height="7" fill="#000000" />
    <rect x="175" y="161" width="7" height="7" fill="#000000" />
    <rect x="7" y="168" width="7" height="7" fill="#000000" />
    <rect x="49" y="168" width="7" height="7" fill="#000000" />
    <rect x="63" y="168" width="35" height="7" fill="#000000" />
    <rect x="105" y="168" width="14" height="7" fill="#000000" />
    <rect x="126" y="168" width="7" height="7" fill="#000000" />
    <rect x="140" y="168" width="14" height="7" fill="#000000" />
    <rect x="161" y="168" width="21" height="7" fill="#000000" />
    <rect x="7" y="175" width="49" height="7" fill="#000000" />
    <rect x="63" y="175" width="14" height="7" fill="#000000" />
    <rect x="84" y="175" width="7" height="7" fill="#000000" />
    <rect x="105" y="175" width="7" height="7" fill="#000000" />
    <rect x="133" y="175" width="14" height="7" fill="#000000" />
    <rect x="161" y="175" width="7" height="7" fill="#000000" />
    <rect x="175" y="175" width="7" height="7" fill="#000000" />
  </g>
</svg>